<svg width="40" height="19" viewBox="0 0 40 19" fill="none" xmlns="http://www.w3.org/2000/svg">
<path d="M5.10018 18V3.34648H0V0H14V3.34648H8.89982V18H5.10018Z" fill="#3685FB"/>
<path d="M22.5618 18.624C21.5793 18.624 20.6514 18.483 19.778 18.201C18.9203 17.9191 18.1328 17.5196 17.4154 17.0026C16.7136 16.47 16.1054 15.8433 15.5907 15.1227C15.0917 14.4021 14.7018 13.6031 14.4211 12.7258C14.1404 11.8329 14 10.8773 14 9.85901C14 8.84073 14.1404 7.88512 14.4211 6.99217C14.7018 6.09922 15.0995 5.28459 15.6141 4.5483C16.1288 3.81201 16.7448 3.18538 17.4621 2.66841C18.1795 2.13577 18.9671 1.72846 19.8248 1.44647C20.6982 1.14882 21.6261 1 22.6086 1C23.7159 1 24.7452 1.18016 25.6965 1.54047C26.6478 1.90078 27.4821 2.41775 28.1995 3.09138C28.9325 3.76501 29.5017 4.57963 29.9072 5.53525L26.5386 6.56919C26.1175 5.81723 25.5717 5.2376 24.9011 4.83029C24.2461 4.42298 23.4819 4.21932 22.6086 4.21932C21.8912 4.21932 21.2284 4.36031 20.6202 4.6423C20.012 4.90862 19.4817 5.30026 19.0295 5.81723C18.5772 6.31854 18.2263 6.906 17.9768 7.57963C17.7273 8.25326 17.6025 8.98956 17.6025 9.78851C17.6025 10.6031 17.7273 11.3551 17.9768 12.0444C18.2263 12.7337 18.5772 13.329 19.0295 13.8303C19.4973 14.3316 20.0432 14.7232 20.667 15.0052C21.2908 15.2715 21.977 15.4047 22.7256 15.4047C23.5209 15.4047 24.2305 15.2559 24.8543 14.9582C25.4781 14.6606 25.985 14.2454 26.3749 13.7128C26.7647 13.1802 27.0065 12.5535 27.1 11.8329H22.9595V8.94256H30.6792V10.705C30.6792 11.8642 30.4764 12.9295 30.0709 13.9008C29.6811 14.8721 29.1274 15.7102 28.41 16.4151C27.6927 17.1201 26.8349 17.6684 25.8368 18.0601C24.8387 18.436 23.7471 18.624 22.5618 18.624Z" fill="#002248"/>
<circle cx="36" cy="15" r="4" fill="#00B3A0"/>
</svg>
