<svg width="22" height="32" viewBox="0 0 22 32" fill="none" xmlns="http://www.w3.org/2000/svg">
<path d="M18.6763 4.24733C17.5169 3.54851 16.4368 2.49487 16.4368 1.14121C16.4368 0.517348 16.0303 0 15.5402 0C15.0501 0 14.6437 0.517348 14.6437 1.14121C14.6437 2.40176 13.6218 3.42363 12.3612 3.42363H9.15597C7.89542 3.42363 6.87355 2.40176 6.87355 1.14121C6.87355 0.517348 6.46711 0 5.97699 0C5.48688 0 5.08044 0.517348 5.08044 1.14121C5.08044 2.49487 4.00028 3.54851 2.84094 4.24733C1.11013 5.29062 0.222936 7.31775 0.0477982 9.98178C0.0238902 10.423 0.310787 10.7882 0.645499 10.7882H20.8717C21.2184 10.7882 21.5053 10.4078 21.4694 9.98178C21.2943 7.31775 20.4071 5.29062 18.6763 4.24733Z" fill="white"/>
<path d="M20.3218 13.0704H1.1954C0.537931 13.0704 0 13.7551 0 14.592V23.9652C0 28.53 1.7931 31.5732 5.97701 31.5732H15.5402C19.7241 31.5732 21.5172 28.53 21.5172 23.9652V14.592C21.5172 13.7551 20.9793 13.0704 20.3218 13.0704ZM7.42345 25.8063C7.36368 25.8672 7.30391 25.9433 7.24414 25.9889C7.23875 25.9935 7.23336 25.998 7.22797 26.0024C7.10684 26.1013 6.96678 26.1847 6.81379 26.2171C6.73012 26.2324 6.65839 26.2476 6.57471 26.2476C6.41931 26.2476 6.26391 26.2019 6.12046 26.1259C5.96506 26.0498 5.84552 25.9433 5.72598 25.8063C5.5108 25.5172 5.37931 25.1216 5.37931 24.726C5.37931 24.3304 5.5108 23.9347 5.72598 23.6456C5.84552 23.5087 5.96506 23.4022 6.12046 23.3261C6.33563 23.2044 6.57471 23.1739 6.81379 23.2348C6.96678 23.2672 7.10684 23.3506 7.22797 23.4496C7.23336 23.454 7.23875 23.4585 7.24414 23.463C7.30391 23.5239 7.36368 23.5848 7.42345 23.6456C7.63862 23.9347 7.77012 24.3304 7.77012 24.726C7.77012 25.1216 7.63862 25.5172 7.42345 25.8063ZM7.42345 20.4807C7.19632 20.7546 6.88552 20.9219 6.57471 20.9219C6.26391 20.9219 5.9531 20.7546 5.72598 20.4807C5.5108 20.1916 5.37931 19.7959 5.37931 19.4003C5.37931 19.0047 5.5108 18.6091 5.72598 18.32C6.06069 17.8939 6.58667 17.757 7.02897 18.0004C7.18437 18.0765 7.31586 18.183 7.42345 18.32C7.63862 18.6091 7.77012 19.0047 7.77012 19.4003C7.77012 19.7959 7.63862 20.1916 7.42345 20.4807ZM11.6074 25.8063C11.3802 26.0802 11.0694 26.2476 10.7586 26.2476C10.4478 26.2476 10.137 26.0802 9.90989 25.8063C9.69471 25.5172 9.56322 25.1216 9.56322 24.726C9.56322 24.3304 9.69471 23.9347 9.90989 23.6456C10.3522 23.0826 11.1651 23.0826 11.6074 23.6456C11.8225 23.9347 11.954 24.3304 11.954 24.726C11.954 25.1216 11.8225 25.5172 11.6074 25.8063ZM11.6074 20.4807C11.5476 20.5415 11.4878 20.6024 11.428 20.6633C11.4227 20.6678 11.4173 20.6723 11.4119 20.6767C11.2908 20.7757 11.1507 20.859 10.9977 20.8915C10.914 20.9067 10.8423 20.9219 10.7586 20.9219C10.4478 20.9219 10.137 20.7546 9.90989 20.4807C9.69471 20.1916 9.56322 19.7959 9.56322 19.4003C9.56322 19.0047 9.69471 18.6091 9.90989 18.32C10.0175 18.183 10.149 18.0765 10.3044 18.0004C10.7467 17.757 11.2726 17.8939 11.6074 18.32C11.8225 18.6091 11.954 19.0047 11.954 19.4003C11.954 19.7959 11.8225 20.1916 11.6074 20.4807ZM15.7913 25.8063C15.5641 26.0802 15.2533 26.2476 14.9425 26.2476C14.6317 26.2476 14.3209 26.0802 14.0938 25.8063C13.8786 25.5172 13.7471 25.1216 13.7471 24.726C13.7471 24.3304 13.8786 23.9347 14.0938 23.6456C14.5361 23.0826 15.349 23.0826 15.7913 23.6456C16.0064 23.9347 16.1379 24.3304 16.1379 24.726C16.1379 25.1216 16.0064 25.5172 15.7913 25.8063ZM15.7913 20.4807C15.7315 20.5415 15.6717 20.6024 15.612 20.6633C15.6066 20.6678 15.6012 20.6723 15.5958 20.6767C15.4747 20.7757 15.3346 20.859 15.1816 20.8915C15.0979 20.9067 15.0143 20.9219 14.9425 20.9219C14.6317 20.9219 14.3209 20.7546 14.0938 20.4807C13.8786 20.1916 13.7471 19.7959 13.7471 19.4003C13.7471 19.0047 13.8786 18.6091 14.0938 18.32C14.2133 18.183 14.3329 18.0765 14.4883 18.0004C14.7035 17.8787 14.9425 17.8483 15.1816 17.9091C15.3346 17.9416 15.4747 18.025 15.5958 18.1239C15.6012 18.1283 15.6066 18.1328 15.612 18.1374C15.6717 18.1982 15.7315 18.2591 15.7913 18.32C16.0064 18.6091 16.1379 19.0047 16.1379 19.4003C16.1379 19.7959 16.0064 20.1916 15.7913 20.4807Z" fill="white"/>
</svg>
