<svg width="16" height="15" viewBox="0 0 16 15" fill="none" xmlns="http://www.w3.org/2000/svg">
<path d="M15.9115 5.73059C15.7635 5.27784 15.3704 4.94788 14.8971 4.87952L10.9009 4.30155L9.11355 0.698007C8.90195 0.271178 8.46509 0.000991821 7.98676 0.000991821C7.50852 0.000991821 7.07175 0.271261 6.86006 0.698091L5.07309 4.30155L1.07661 4.87952C0.603308 4.94788 0.210009 5.27784 0.0622395 5.73059C-0.0855301 6.18335 0.0377788 6.68029 0.380313 7.0125L3.27212 9.8174L2.58932 13.7784C2.50848 14.2476 2.70224 14.7218 3.08917 15.0015C3.30806 15.1598 3.56733 15.2403 3.82785 15.2403C4.02789 15.2403 4.22869 15.1929 4.41248 15.0966L7.98676 13.2264L11.5614 15.0967C11.9847 15.3179 12.4976 15.2812 12.8847 15.0014C13.2716 14.7217 13.4654 14.2475 13.3845 13.7783L12.7019 9.81723L15.5934 7.01241C15.9359 6.6802 16.0592 6.18326 15.9115 5.73059Z" fill="#FFD751"/>
<path d="M15.9116 5.72952C15.7638 5.27684 15.3706 4.94689 14.8973 4.87853L10.9011 4.30072L9.11397 0.697016C8.90228 0.270186 8.46542 0 7.98718 0V13.2255L11.5618 15.0956C11.9851 15.3168 12.498 15.2802 12.8851 15.0003C13.272 14.7206 13.4658 14.2464 13.385 13.7773L12.7024 9.81632L15.5939 7.01126C15.9362 6.67921 16.0595 6.18219 15.9116 5.72952Z" fill="#F4C82A"/>
</svg>
